<?xml version="1.0" standalone="no"?>
<!DOCTYPE svg PUBLIC "-//W3C//DTD SVG 20010904//EN"
 "http://www.w3.org/TR/2001/REC-SVG-20010904/DTD/svg10.dtd">
<svg version="1.0" xmlns="http://www.w3.org/2000/svg"
 width="728.000000pt" height="542.000000pt" viewBox="0 0 728.000000 542.000000"
 preserveAspectRatio="xMidYMid meet">

<g transform="translate(0.000000,542.000000) scale(0.100000,-0.100000)"
fill="#000000" stroke="none">
<path d="M3475 4969 c-595 -37 -1179 -337 -1577 -808 -420 -497 -605 -1181
-493 -1811 63 -350 206 -680 422 -971 252 -341 663 -637 1080 -778 675 -230
1420 -132 2012 263 187 125 407 330 537 502 257 340 413 736 453 1148 90 923
-411 1814 -1252 2225 -275 135 -539 207 -841 231 -140 11 -149 11 -341 -1z
m575 -92 c943 -181 1641 -901 1786 -1842 22 -147 23 -460 0 -608 -34 -233
-100 -444 -201 -652 -170 -349 -429 -646 -750 -859 -394 -263 -846 -391 -1315
-373 -435 17 -814 139 -1172 379 -243 162 -484 414 -641 669 -72 118 -162 311
-206 444 -79 236 -111 434 -111 687 0 444 116 838 355 1199 355 535 906 880
1555 974 66 10 168 13 330 11 202 -3 254 -7 370 -29z"/>
<path d="M3425 4828 c-878 -88 -1627 -727 -1845 -1572 -48 -187 -64 -319 -64
-531 0 -338 67 -630 211 -920 214 -432 543 -758 978 -970 314 -153 593 -218
945 -218 577 0 1099 216 1511 623 716 710 824 1828 257 2665 -437 645 -1209
1002 -1993 923z m410 -162 c73 -31 86 -136 24 -202 -20 -21 -20 -21 5 -38 58
-37 72 -135 29 -195 -41 -55 -81 -66 -275 -69 l-176 -4 -6 64 c-3 34 -9 152
-13 261 l-8 197 193 0 c144 0 201 -4 227 -14z m337 -52 c43 -14 78 -29 78 -33
0 -4 -25 -72 -54 -151 -73 -191 -74 -199 -16 -225 58 -26 80 -13 114 71 16 38
45 107 64 154 19 47 39 89 43 94 5 6 35 -2 73 -18 108 -46 105 -29 33 -208
-95 -234 -116 -258 -231 -258 -90 0 -207 45 -273 104 -48 44 -48 44 -48 107 0
53 10 92 59 227 32 89 63 162 70 162 6 0 46 -12 88 -26z m-982 -26 c24 -13 53
-35 64 -50 27 -38 34 -134 12 -176 l-16 -31 53 -49 c28 -27 70 -64 91 -83 l39
-34 -69 -17 c-109 -26 -117 -25 -193 37 -63 51 -71 55 -94 44 l-26 -12 26 -56
c40 -90 43 -83 -46 -123 -45 -20 -83 -33 -86 -28 -5 9 -132 307 -175 413 -15
35 -20 61 -14 66 8 7 163 72 254 107 55 21 129 17 180 -8z m1648 -304 c95 -31
185 -124 207 -216 6 -24 2 -29 -45 -53 -29 -15 -53 -25 -53 -23 -52 109 -93
148 -154 148 -63 0 -132 -56 -148 -122 -16 -63 53 -148 134 -164 17 -4 31 -9
31 -12 0 -14 -57 -92 -67 -92 -43 0 -132 48 -178 95 -57 58 -75 103 -75 186 0
87 16 127 75 185 78 79 169 101 273 68z m-2289 -46 c47 -28 95 -58 106 -65 11
-8 76 -49 144 -91 69 -43 126 -82 128 -87 2 -6 -27 -29 -64 -52 l-66 -41 -53
26 -53 26 -47 -40 c-25 -21 -55 -46 -66 -54 -19 -16 -19 -17 1 -64 12 -26 21
-52 21 -58 0 -18 -112 -140 -120 -131 -14 16 -221 507 -218 519 3 13 178 162
192 163 4 1 47 -22 95 -51z m1256 -208 c441 -61 805 -313 1006 -694 203 -387
195 -862 -21 -1239 -189 -330 -503 -558 -883 -638 -129 -28 -377 -31 -505 -6
-541 103 -963 525 -1058 1057 -22 125 -22 336 0 454 52 273 163 482 361 682
197 199 412 315 680 368 134 26 300 32 420 16z m1403 -96 c24 -31 45 -61 48
-68 3 -7 -26 -34 -65 -62 -39 -27 -70 -52 -71 -55 0 -3 30 -9 68 -13 173 -17
157 -10 202 -92 22 -40 40 -76 40 -79 0 -3 -15 -4 -32 -1 -18 3 -80 8 -138 11
l-106 7 -79 -141 c-44 -77 -83 -141 -86 -141 -3 0 -25 35 -48 78 l-42 77 51
105 c29 57 46 99 38 94 -94 -73 -138 -104 -145 -104 -9 1 -98 120 -98 133 0
10 395 305 410 306 6 1 29 -24 53 -55z m-3053 -5 c30 -17 55 -33 55 -36 0 -3
-18 -34 -40 -68 l-39 -63 152 -98 c84 -53 156 -100 160 -104 9 -8 -70 -140
-83 -140 -4 0 -78 43 -165 96 -86 53 -157 95 -159 93 -2 -2 -20 -30 -40 -62
l-36 -58 -30 18 c-17 10 -42 27 -57 39 l-26 21 21 29 c20 28 108 168 187 298
22 36 41 66 43 66 1 0 27 -14 57 -31z m-283 -505 c41 -29 46 -39 24 -51 -7 -4
-25 -26 -40 -47 -27 -40 -35 -106 -16 -136 15 -24 58 6 89 62 31 55 70 101 99
117 11 6 43 11 70 11 63 0 109 -30 140 -90 20 -38 23 -55 18 -110 -7 -93 -30
-150 -85 -211 l-49 -54 -43 24 c-67 36 -67 37 -23 84 23 23 48 53 58 67 19 30
21 79 3 104 -20 27 -51 7 -82 -52 -48 -92 -88 -122 -160 -122 -58 0 -102 24
-139 73 -18 24 -21 43 -21 120 0 99 14 139 70 206 32 38 39 38 87 5z m3594
-33 c81 -49 136 -186 119 -297 l-6 -44 -53 0 -53 0 4 73 c4 60 1 77 -16 105
-21 33 -48 41 -69 20 -8 -8 -12 -46 -12 -105 0 -112 -17 -156 -72 -184 -69
-35 -153 -19 -206 40 -64 70 -99 214 -73 294 12 34 14 35 67 39 l55 3 -8 -45
c-16 -96 1 -166 44 -176 38 -10 46 8 45 94 -2 93 13 137 58 176 26 21 42 26
88 26 38 0 67 -6 88 -19z m-111 -936 c32 -82 27 -79 123 -76 29 1 58 -1 63 -5
5 -3 -17 -26 -51 -52 -33 -25 -60 -52 -60 -58 0 -7 9 -41 20 -76 11 -34 20
-64 20 -65 0 -10 -28 2 -77 34 -31 20 -62 36 -68 36 -5 0 -40 -19 -77 -41 -38
-23 -68 -38 -68 -34 0 4 9 36 20 72 11 36 20 70 20 75 -1 6 -27 30 -60 55 -33
25 -59 48 -60 52 0 4 37 7 81 6 l82 -2 30 77 c17 42 31 77 32 77 1 0 15 -34
30 -75z m-3360 -5 l28 -70 61 -1 c55 -2 73 -3 100 -8 5 0 -21 -24 -57 -51
l-65 -51 23 -74 c24 -80 19 -91 -26 -57 -13 10 -40 28 -61 39 l-36 21 -71 -44
c-39 -24 -71 -40 -71 -35 0 5 9 39 21 76 23 76 23 75 -52 131 -27 20 -49 40
-49 45 0 5 34 8 76 6 87 -4 88 -3 120 91 10 28 21 52 25 52 3 0 19 -31 34 -70z
m551 -676 c27 -14 62 -38 77 -52 32 -30 73 -97 82 -133 5 -21 0 -26 -42 -44
-26 -11 -51 -21 -55 -23 -4 -2 -8 3 -8 10 0 20 -45 78 -77 100 -17 10 -46 18
-72 18 -79 0 -141 -69 -141 -156 0 -53 69 -120 134 -129 26 -4 46 -9 46 -11 0
-2 -10 -25 -22 -50 l-23 -45 -47 5 c-88 9 -180 72 -220 150 -28 55 -34 140
-15 207 34 116 125 179 258 179 63 0 85 -5 125 -26z m2264 -31 l33 -37 -34
-29 c-19 -17 -55 -50 -82 -74 l-47 -44 20 -30 c12 -16 24 -29 28 -29 4 0 39
27 77 59 l70 59 37 -42 38 -41 -47 -40 c-26 -22 -59 -51 -75 -65 l-27 -25 29
-34 29 -34 91 78 90 78 35 -39 c19 -21 34 -45 35 -51 0 -11 -269 -246 -305
-266 -9 -5 -57 50 -164 188 -83 108 -152 200 -154 204 -1 5 34 39 78 77 44 37
106 91 137 121 31 29 61 53 66 53 6 0 24 -17 42 -37z m-1862 -265 c135 -65
194 -212 142 -352 -22 -57 -87 -127 -138 -148 -80 -32 -185 -27 -263 12 -83
43 -149 154 -149 251 0 113 87 220 210 260 41 14 149 1 198 -23z m1514 -18 c9
-19 17 -38 18 -42 0 -4 -42 -29 -92 -54 -51 -25 -95 -48 -97 -50 -5 -4 7 -46
18 -63 7 -10 26 -5 95 28 l87 40 25 -52 24 -52 -43 -20 c-24 -12 -65 -29 -90
-40 -26 -10 -47 -21 -47 -22 0 -2 9 -21 20 -43 l20 -39 106 49 c58 28 107 50
109 50 5 0 48 -111 44 -114 -12 -9 -380 -168 -382 -165 -7 8 -187 472 -185
473 2 1 50 24 108 50 58 26 130 60 160 76 30 16 62 28 70 27 8 -1 23 -18 32
-37z m-1041 -152 l175 -32 -8 -60 c-5 -33 -10 -62 -13 -64 -2 -3 -52 3 -110
13 -58 10 -107 16 -110 13 -3 -2 -8 -25 -11 -50 l-6 -45 91 -13 c51 -7 93 -16
95 -19 2 -3 -1 -32 -6 -63 -9 -52 -12 -57 -31 -53 -52 11 -142 25 -163 25 -20
0 -24 -9 -40 -80 -12 -60 -21 -80 -33 -80 -28 0 -151 34 -151 42 0 8 89 372
111 456 6 23 17 42 23 42 6 0 90 -14 187 -32z m613 -5 c3 -10 8 -39 12 -65 5
-42 4 -48 -12 -49 -11 0 -59 -6 -109 -12 l-90 -12 -3 -44 -3 -44 63 6 c35 4
80 9 100 13 36 6 37 6 43 -32 3 -22 8 -51 11 -65 5 -25 4 -25 -100 -38 l-104
-13 4 -56 c3 -32 6 -71 9 -88 3 -30 1 -32 -33 -38 -20 -3 -60 -6 -88 -6 l-51
0 -12 203 c-6 111 -14 227 -18 258 l-5 56 74 7 c40 4 112 13 158 21 123 19
148 18 154 -2z"/>
<path d="M3600 4535 l0 -46 58 3 c54 3 57 4 60 31 5 42 -13 57 -69 57 l-49 0
0 -45z"/>
<path d="M3610 4340 l0 -51 58 3 c57 3 57 3 60 36 5 47 -12 62 -69 62 l-49 0
0 -50z"/>
<path d="M2990 4452 c-19 -9 -36 -17 -38 -18 -6 -3 42 -94 49 -94 4 0 28 9 53
20 39 16 46 23 46 48 0 33 -27 62 -56 61 -10 0 -35 -8 -54 -17z"/>
<path d="M2440 4104 c0 -2 5 -12 10 -22 6 -9 19 -39 30 -66 l20 -48 32 24 c18
14 33 29 35 34 1 5 -26 26 -62 46 -36 20 -65 35 -65 32z"/>
<path d="M3513 3939 c-331 -32 -667 -224 -855 -489 -110 -156 -193 -356 -223
-540 -20 -125 -20 -126 15 -140 47 -20 117 -7 211 39 93 44 169 56 169 26 0
-31 -31 -65 -60 -65 -15 0 -71 -21 -124 -46 -86 -41 -103 -45 -158 -43 l-62 3
3 -50 c1 -27 5 -51 7 -53 2 -2 23 -4 47 -4 29 0 72 13 133 41 107 49 144 54
144 18 0 -40 -11 -56 -37 -56 -13 0 -63 -20 -111 -44 -48 -25 -104 -48 -124
-51 -35 -7 -37 -9 -32 -34 13 -51 23 -62 52 -55 15 4 63 24 106 45 44 22 90
39 103 39 21 0 24 -4 21 -32 -2 -25 -9 -34 -33 -41 -16 -6 -55 -25 -86 -44
-32 -18 -72 -36 -88 -39 -37 -8 -42 -39 -12 -75 l20 -24 80 43 c95 51 125 52
129 6 3 -28 0 -32 -26 -37 -16 -3 -57 -23 -90 -44 l-61 -39 16 -32 c19 -39 31
-40 86 -5 23 14 55 29 72 33 27 5 30 9 27 43 -3 36 -3 37 31 37 23 0 53 12 90
37 49 32 57 42 67 84 6 26 40 95 76 155 74 125 75 131 43 299 -24 126 -20 183
16 254 20 41 75 105 75 88 0 -3 -9 -21 -19 -39 -49 -83 -49 -208 -1 -357 11
-35 20 -69 20 -75 0 -35 -27 -93 -80 -176 -33 -52 -65 -112 -71 -134 -14 -52
-4 -113 30 -181 l28 -56 -80 -59 c-76 -57 -132 -80 -157 -65 -7 4 -18 23 -26
41 -10 24 -21 34 -37 34 -24 0 -109 -42 -114 -56 -2 -5 7 -22 20 -37 l22 -28
45 20 c55 25 64 25 84 5 27 -27 19 -43 -29 -55 -25 -6 -45 -17 -45 -23 0 -7
13 -25 30 -41 26 -25 33 -27 55 -17 38 18 59 15 74 -10 12 -20 11 -24 -8 -36
-29 -19 -27 -26 17 -60 64 -50 74 -49 105 10 15 29 45 82 66 117 24 37 43 82
47 110 l7 46 14 -33 c19 -46 6 -86 -57 -182 -28 -43 -53 -93 -57 -113 -5 -32
-2 -37 25 -51 17 -9 33 -16 35 -16 3 0 7 17 10 38 4 20 23 64 43 97 86 139 97
164 92 210 -6 45 -32 91 -106 189 -52 68 -62 93 -62 157 0 57 24 112 80 179
80 97 87 148 40 287 -43 125 -47 176 -22 260 21 66 65 133 102 153 14 7 10 -4
-15 -45 -67 -112 -71 -216 -12 -350 49 -111 55 -160 27 -216 -13 -24 -40 -66
-61 -94 -73 -97 -93 -170 -68 -246 7 -19 38 -66 71 -106 32 -40 65 -88 73
-107 29 -68 13 -146 -45 -231 -46 -66 -70 -125 -70 -171 0 -39 2 -41 39 -52
21 -7 40 -12 42 -12 2 0 3 21 1 47 -4 49 2 61 100 246 24 44 33 110 24 161 -4
22 -30 65 -65 110 -94 118 -110 162 -87 238 7 26 36 78 63 115 88 121 90 158
21 328 -33 81 -41 112 -41 165 -1 86 25 161 74 212 40 42 70 47 32 5 -46 -49
-58 -88 -58 -182 0 -87 2 -95 54 -214 47 -110 53 -130 48 -173 -3 -26 -18 -67
-32 -90 -15 -24 -42 -67 -61 -97 -64 -104 -55 -166 45 -290 96 -120 100 -192
16 -346 -52 -96 -69 -154 -60 -206 8 -49 28 -69 67 -69 28 0 30 2 22 28 -5 15
-9 53 -8 84 0 48 9 74 56 171 31 62 59 130 63 149 11 57 -11 111 -86 209 -38
51 -72 104 -76 117 -11 47 5 100 54 175 27 41 55 89 62 106 15 34 28 37 93 20
34 -9 55 -8 101 4 67 18 83 15 91 -17 3 -13 31 -57 61 -99 90 -123 88 -174
-12 -304 -111 -146 -116 -179 -47 -310 79 -149 99 -232 74 -299 -6 -15 -9 -29
-6 -31 2 -2 22 1 44 7 38 10 41 13 48 55 10 67 -1 101 -67 232 -55 105 -60
123 -55 161 7 52 33 103 85 170 65 82 81 113 81 160 0 56 -17 95 -82 188 -50
72 -53 79 -53 137 1 52 8 78 49 167 38 82 50 120 54 171 6 87 -12 160 -54 215
-41 54 -31 58 18 7 97 -101 108 -204 41 -388 -55 -150 -58 -175 -34 -229 10
-25 37 -69 60 -98 98 -130 95 -196 -11 -335 -107 -138 -113 -184 -43 -308 71
-126 87 -164 89 -217 1 -49 1 -49 30 -44 46 9 55 22 49 69 -4 42 -30 95 -93
196 -61 96 -46 168 69 320 55 73 56 76 56 140 0 70 -7 85 -111 251 -47 74 -46
125 1 231 60 132 56 263 -12 379 l-27 45 24 -16 c40 -26 88 -105 100 -165 14
-68 8 -115 -32 -259 -38 -137 -34 -157 56 -289 99 -145 99 -206 -2 -337 -119
-153 -122 -208 -18 -359 20 -29 44 -74 53 -101 19 -53 30 -58 61 -31 19 15 20
20 9 52 -7 19 -35 68 -61 109 -60 91 -71 129 -55 179 l12 37 13 -56 c13 -56
30 -91 92 -184 18 -27 35 -60 38 -72 8 -31 18 -29 75 13 54 40 58 48 29 64
-24 13 -25 28 -4 51 14 16 19 16 51 2 36 -14 36 -14 71 20 l35 35 -31 16 c-17
9 -38 16 -47 16 -19 0 -20 34 -1 49 16 13 54 7 100 -17 29 -14 31 -13 53 14
13 16 23 32 23 36 0 12 -123 66 -138 61 -7 -3 -16 -19 -19 -35 -3 -16 -12 -32
-19 -35 -28 -10 -84 9 -141 47 -107 74 -101 59 -63 141 53 116 43 156 -91 368
-41 66 -43 111 -9 221 32 102 31 192 -3 285 -14 38 -24 71 -21 74 11 11 56
-47 75 -98 30 -81 35 -173 14 -246 -10 -33 -20 -86 -22 -118 -5 -64 -1 -75 84
-214 28 -45 54 -99 58 -120 10 -57 92 -122 153 -123 34 0 34 0 27 -40 -6 -36
-5 -40 14 -40 12 0 48 -13 81 -30 33 -16 63 -30 68 -30 5 0 16 16 25 34 16 35
16 35 -11 50 -60 32 -141 74 -150 77 -6 2 -8 16 -5 32 7 37 28 35 123 -13 44
-22 84 -40 89 -40 12 0 43 68 36 80 -3 6 -13 10 -22 10 -8 0 -52 20 -97 45
-46 25 -90 45 -100 45 -12 0 -16 9 -16 35 0 48 19 46 134 -11 104 -51 128 -52
145 -2 16 44 15 45 -27 51 -20 4 -76 26 -122 51 -47 24 -100 47 -117 51 -23 4
-33 12 -33 25 0 10 -3 26 -7 36 -6 15 -1 16 40 11 26 -4 73 -20 105 -36 72
-36 137 -54 168 -47 21 6 24 12 24 59 l0 52 -68 0 c-57 1 -80 7 -158 43 -51
23 -103 42 -117 42 -29 0 -43 14 -53 54 l-7 29 56 -6 c40 -4 79 -18 129 -45
90 -50 133 -59 181 -38 35 14 37 18 37 58 0 119 -51 313 -117 442 -63 127
-114 197 -215 302 -217 224 -471 347 -778 374 -63 5 -122 9 -130 9 -8 -1 -56
-6 -107 -10z m164 -143 l32 -64 76 -7 77 -8 -58 -58 -57 -58 23 -61 c12 -33
26 -63 31 -66 4 -2 45 15 91 40 75 40 164 73 174 64 2 -2 -7 -37 -21 -78 -13
-41 -21 -77 -19 -79 2 -2 25 6 52 17 53 23 132 39 132 27 0 -4 -9 -19 -20 -35
-34 -47 -80 -154 -80 -184 0 -33 11 -34 -135 18 -131 46 -223 60 -365 53 -125
-6 -237 -31 -351 -77 l-69 -29 -11 42 c-13 48 -74 173 -89 182 -5 3 -10 13
-10 20 0 18 43 11 123 -21 31 -12 57 -20 58 -16 4 21 -5 60 -22 99 -25 59 -24
65 9 57 33 -8 156 -69 195 -96 16 -11 32 -17 36 -12 12 14 51 115 51 132 0 8
-26 39 -57 68 l-58 53 51 1 c101 0 110 5 141 76 15 35 30 64 33 64 3 0 20 -29
37 -64z m-941 -471 c39 -41 74 -117 74 -163 0 -9 6 -12 18 -7 122 47 209 59
265 36 l29 -11 -49 -39 c-49 -39 -137 -129 -163 -167 -12 -17 -29 -22 -85 -26
-53 -4 -92 -15 -161 -47 -87 -39 -133 -49 -168 -35 -9 3 -16 11 -16 17 0 5 27
52 61 104 91 141 111 192 117 296 5 104 14 109 78 42z m1899 -42 c0 -81 3 -94
36 -163 20 -41 60 -109 88 -150 28 -41 51 -80 51 -87 0 -15 -61 -27 -94 -19
-14 3 -60 22 -103 42 -59 28 -95 38 -149 42 -67 4 -71 6 -94 39 -33 48 -105
119 -151 150 -65 43 -47 63 59 63 34 0 77 -9 118 -26 35 -14 68 -23 73 -20 5
4 13 21 16 39 12 52 41 101 84 140 61 55 66 51 66 -50z m-880 -24 c43 -12 125
-85 125 -112 0 -12 -17 -16 -81 -19 -74 -3 -83 -6 -105 -31 -35 -41 -33 -147
2 -147 8 0 17 7 20 15 5 11 23 14 82 12 77 -2 77 -2 80 -31 6 -46 -37 -164
-79 -216 -75 -95 -180 -114 -269 -49 -69 50 -130 169 -130 255 0 38 21 59 47
47 10 -5 47 -8 83 -8 l65 2 3 55 c3 50 0 58 -24 77 -21 16 -41 21 -90 21 -52
0 -64 3 -64 16 0 40 61 94 130 115 38 11 160 10 205 -2z m-234 -189 c34 -19
22 -32 -21 -25 -27 5 -46 3 -56 -6 -18 -15 -40 2 -31 25 7 19 77 22 108 6z
m347 -18 c3 -21 1 -23 -20 -15 -13 4 -42 8 -65 8 -24 0 -43 3 -43 8 0 14 44
26 85 24 34 -2 41 -6 43 -25z"/>
<path d="M3582 3479 c-48 -37 -63 -66 -34 -63 7 1 57 2 112 3 55 0 100 5 100
10 0 7 -112 91 -122 91 -1 0 -27 -19 -56 -41z"/>
<path d="M3595 2890 c-10 -16 -5 -19 45 -22 35 -2 45 0 45 12 0 18 -79 27 -90
10z"/>
<path d="M3570 2775 c26 -27 42 -35 70 -35 39 0 74 20 90 51 10 18 7 19 -92
19 l-102 0 34 -35z"/>
<path d="M2822 1371 c-50 -13 -121 -111 -122 -167 -1 -101 108 -150 185 -83
41 36 55 59 66 106 8 39 -7 96 -31 118 -23 21 -70 33 -98 26z"/>
</g>
</svg>
